<?xml version="1.0" standalone="no"?>
<!DOCTYPE svg PUBLIC "-//W3C//DTD SVG 20010904//EN"
 "http://www.w3.org/TR/2001/REC-SVG-20010904/DTD/svg10.dtd">
<svg version="1.0" xmlns="http://www.w3.org/2000/svg"
 width="482.000000pt" height="518.000000pt" viewBox="0 0 482.000000 518.000000"
 preserveAspectRatio="xMidYMid meet">

<g transform="translate(0.000000,518.000000) scale(0.100000,-0.100000)"
fill="#000000" stroke="none">
<path d="M2565 5039 c-152 -60 -189 -68 -238 -50 -20 8 -29 6 -43 -10 -17 -19
-16 -19 45 -19 56 0 62 -2 73 -25 14 -31 -1 -51 -44 -60 -17 -4 -49 -24 -72
-44 -23 -21 -67 -54 -98 -75 -102 -67 -288 -255 -406 -411 -34 -45 -125 -181
-129 -194 -3 -9 -12 -23 -18 -31 -7 -8 -55 -98 -107 -200 -52 -102 -106 -205
-120 -230 -15 -25 -32 -75 -39 -110 -7 -36 -20 -78 -30 -95 -9 -16 -20 -55
-24 -85 -4 -30 -15 -71 -26 -90 -58 -111 -155 -581 -166 -812 -5 -104 -8 -118
-24 -118 -26 0 -34 80 -31 295 7 523 63 908 182 1240 35 97 145 313 205 403
154 231 302 365 560 508 103 56 125 70 171 102 36 26 44 36 33 43 -36 23 -126
-2 -159 -44 -16 -20 -46 -37 -110 -61 -20 -8 -119 -65 -166 -97 -51 -34 -158
-139 -217 -211 -85 -106 -143 -200 -251 -413 -34 -66 -74 -136 -89 -157 -21
-27 -34 -65 -52 -150 -27 -127 -56 -233 -78 -293 -8 -22 -23 -75 -33 -117 -15
-63 -16 -83 -6 -116 17 -58 15 -158 -7 -259 -58 -266 -93 -668 -95 -1083 -1
-213 2 -281 16 -345 27 -131 90 -336 129 -422 10 -24 19 -47 19 -53 0 -5 11
-38 25 -72 13 -35 38 -101 56 -148 37 -101 101 -233 135 -277 13 -17 24 -34
24 -37 0 -21 147 -195 264 -312 l141 -141 90 -17 c50 -9 114 -29 143 -43 48
-23 60 -25 130 -19 234 20 231 19 347 75 60 29 121 58 134 63 36 13 127 89
140 116 6 13 20 22 33 22 23 0 147 112 372 335 88 87 170 195 225 294 45 83
54 98 67 112 8 8 14 20 14 26 0 6 10 25 23 44 18 28 152 316 249 539 11 25 28
63 38 85 10 22 30 72 45 110 15 39 36 90 46 115 26 63 67 197 75 248 7 42 6
42 -25 42 -45 0 -121 -74 -121 -119 0 -17 -7 -46 -16 -63 -23 -44 -74 -171
-74 -184 0 -5 -12 -26 -26 -45 -15 -19 -24 -26 -21 -17 11 31 46 271 66 453
20 174 33 385 47 720 7 175 -11 392 -45 559 -49 236 -71 373 -81 506 -22 291
-60 448 -134 563 -73 115 -222 236 -370 301 -74 33 -231 60 -306 53 -37 -3
-64 0 -81 9 -35 20 -126 16 -184 -7z m573 -120 c49 -10 62 -19 151 -107 95
-95 133 -152 160 -242 15 -50 49 -231 61 -324 5 -43 21 -113 34 -155 30 -93
49 -287 71 -711 8 -162 19 -347 25 -410 5 -63 15 -234 21 -379 15 -308 3 -584
-33 -735 -23 -101 -82 -221 -138 -282 -21 -23 -50 -60 -64 -82 -14 -23 -40
-52 -57 -64 -24 -17 -55 -71 -127 -216 -78 -160 -97 -192 -112 -187 -12 4 -25
-3 -39 -21 -20 -25 -20 -29 -6 -50 14 -21 13 -26 -4 -57 -117 -208 -238 -360
-330 -413 -25 -15 -61 -44 -79 -66 -52 -59 -172 -132 -255 -154 -36 -9 -63
-11 -93 -4 -49 11 -97 29 -104 38 -7 9 -112 52 -127 52 -7 0 -23 11 -36 24
-16 16 -42 27 -73 31 -52 8 -91 34 -193 130 -51 48 -153 167 -198 232 -25 35
-143 278 -143 293 0 5 -9 29 -19 52 -45 102 -104 275 -147 433 l-28 100 0 665
c-1 709 -3 666 48 905 15 70 72 241 86 260 4 6 13 33 19 61 7 29 28 75 47 105
20 29 37 66 40 83 5 30 36 104 74 176 10 19 39 73 63 120 38 72 66 115 115
175 122 151 182 228 182 235 0 4 27 38 60 74 33 37 71 84 84 105 13 21 42 51
63 68 80 62 242 163 318 199 71 33 88 37 155 36 202 -4 244 -2 259 13 12 12
196 8 269 -6z m-2050 -3072 c58 -82 128 -250 206 -492 38 -120 100 -264 207
-477 78 -158 94 -182 212 -338 26 -34 47 -66 47 -71 0 -5 6 -9 13 -9 7 0 40
-22 74 -50 34 -27 68 -50 76 -50 7 0 24 -12 38 -26 13 -14 39 -35 59 -46 19
-12 44 -29 55 -39 11 -9 36 -20 55 -24 38 -8 80 -40 80 -61 0 -24 -34 -31
-110 -23 -138 14 -255 52 -378 123 -43 25 -255 260 -348 386 -44 59 -100 164
-132 245 -56 145 -186 640 -212 810 -6 33 -14 83 -18 112 -15 91 22 105 76 30z
m2555 -199 c-8 -43 -62 -158 -74 -158 -6 0 -6 7 -1 18 5 9 15 42 22 72 10 44
42 100 56 100 2 0 1 -15 -3 -32z m-181 -225 c-64 -142 -114 -223 -177 -288
l-68 -70 37 70 c21 39 44 77 52 86 8 8 14 19 14 23 0 16 144 213 157 216 1 0
-6 -17 -15 -37z m-138 -406 c-11 -14 -32 -42 -49 -63 -16 -22 -51 -65 -77 -96
-25 -32 -52 -65 -60 -74 -53 -66 -85 -84 -73 -41 4 12 22 55 41 94 19 40 34
77 34 81 0 5 12 15 28 23 15 8 47 28 71 44 97 67 118 75 85 32z"/>
<path d="M3100 3538 c-29 -18 -60 -44 -69 -57 -15 -24 -15 -24 7 -19 12 3 22
4 22 2 0 -6 -43 -67 -51 -74 -4 -3 -27 -36 -53 -75 -110 -167 -197 -283 -249
-333 -29 -28 -51 -59 -57 -82 -12 -44 -45 -79 -61 -63 -8 8 -8 13 0 17 6 4 11
14 11 22 0 8 8 27 19 42 31 46 155 233 166 251 6 9 22 32 36 51 66 87 108 155
98 159 -19 6 -69 -51 -144 -164 -40 -60 -80 -123 -89 -140 -96 -174 -180 -292
-223 -314 -23 -12 -34 2 -128 174 -52 94 -97 155 -147 200 -34 30 -54 42 -62
36 -15 -12 -39 9 -98 86 -60 78 -92 140 -77 149 13 7 -28 54 -47 54 -7 0 -18
-8 -23 -18 -10 -20 23 -108 55 -145 169 -194 284 -362 284 -413 0 -33 26 -71
99 -147 23 -23 47 -54 54 -69 6 -16 15 -28 19 -28 5 0 8 -6 8 -14 0 -46 -604
-78 -697 -36 -30 13 -39 12 -102 -9 -57 -20 -67 -27 -63 -44 3 -10 11 -21 19
-24 17 -7 416 13 558 28 82 8 110 7 158 -5 68 -18 77 -23 77 -42 0 -18 -61
-114 -72 -114 -5 0 -8 -6 -8 -12 0 -7 -19 -34 -43 -60 -23 -25 -58 -66 -77
-89 -19 -24 -42 -50 -50 -58 -9 -9 -40 -45 -70 -80 -30 -35 -66 -76 -80 -91
-74 -77 -275 -312 -298 -349 -9 -14 -22 -30 -29 -34 -25 -15 -14 -37 17 -37
49 0 123 43 139 82 13 29 61 102 98 148 116 145 111 139 243 285 172 190 290
331 290 346 0 12 26 11 73 -2 27 -7 44 -20 59 -44 14 -26 29 -36 56 -41 45 -9
92 -51 96 -87 1 -15 14 -40 28 -55 14 -15 28 -35 32 -46 5 -14 9 -16 20 -7 11
9 18 8 30 -4 9 -9 16 -21 16 -27 0 -6 19 -27 41 -46 49 -42 101 -119 146 -217
42 -91 44 -118 3 -72 -16 19 -30 39 -30 45 0 5 -6 15 -13 21 -25 20 -126 176
-132 204 -4 15 -16 32 -26 38 -11 5 -19 8 -19 6 0 -2 15 -37 34 -78 35 -76 70
-127 129 -189 18 -19 46 -54 62 -78 16 -24 33 -46 39 -50 6 -4 24 -26 39 -49
28 -40 81 -71 92 -54 3 5 -8 22 -24 37 -16 16 -31 36 -33 44 -2 8 -10 21 -19
30 -9 8 -22 40 -29 70 -13 57 -60 149 -85 170 -8 7 -15 16 -15 21 0 16 -192
287 -237 334 -61 64 -163 185 -163 193 0 15 26 22 83 23 61 2 48 5 -46 14 -78
8 -86 26 -16 36 39 6 106 15 360 49 80 11 159 5 159 -13 0 -12 128 -3 195 14
110 28 12 44 -215 36 -91 -4 -192 -11 -225 -16 -83 -15 -298 -30 -329 -24 -49
10 -24 67 74 170 36 37 73 79 83 93 9 14 32 48 51 75 18 28 44 61 57 75 13 14
32 37 41 50 10 14 30 43 46 65 15 22 46 75 68 118 39 78 47 88 155 204 32 35
63 72 69 83 9 17 8 20 -13 20 -12 0 -47 -15 -77 -32z"/>
<path d="M3008 2573 c7 -3 16 -2 19 1 4 3 -2 6 -13 5 -11 0 -14 -3 -6 -6z"/>
<path d="M2875 2534 l-60 -13 60 5 c33 3 67 10 75 15 13 7 13 8 0 7 -8 0 -42
-7 -75 -14z"/>
</g>
</svg>
